<svg xmlns="http://www.w3.org/2000/svg" viewBox="50 50 300 200" width="700.66157" height="436.37988" class="illustration styles_illustrationTablet__1DWOa"><g id="_479_data_maintenance_outline" data-name="#479_data_maintenance_outline"><rect x="150.8" y="79.07" width="99.68" height="121.25" fill="#093f68"></rect><path d="M250.49,201.32H150.8a1,1,0,0,1-1-1V79.07a1,1,0,0,1,1-1h99.69a1,1,0,0,1,1,1V200.32A1,1,0,0,1,250.49,201.32Zm-98.69-2h97.69V80.07H151.8Z" fill="#093f68"></path><rect x="144.68" y="73.49" width="110.81" height="33.88" rx="4.26" fill="#007FFF"></rect><path d="M251.23,108.36H149a5.27,5.27,0,0,1-5.27-5.26V77.75A5.27,5.27,0,0,1,149,72.49H251.23a5.27,5.27,0,0,1,5.26,5.26V103.1A5.27,5.27,0,0,1,251.23,108.36ZM149,74.49a3.27,3.27,0,0,0-3.27,3.26V103.1a3.27,3.27,0,0,0,3.27,3.26H251.23a3.26,3.26,0,0,0,3.26-3.26V77.75a3.26,3.26,0,0,0-3.26-3.26Z" fill="#093f68"></path><circle cx="237.5" cy="90.43" r="4.74" fill="#093f68"></circle><path d="M200.09,91.43H159a1,1,0,0,1,0-2h41.1a1,1,0,0,1,0,2Z" fill="#093f68"></path><rect x="144.68" y="113.2" width="110.81" height="33.88" rx="4.26" fill="#007FFF"></rect><path d="M251.23,148.08H149a5.27,5.27,0,0,1-5.27-5.26V117.47A5.28,5.28,0,0,1,149,112.2H251.23a5.27,5.27,0,0,1,5.26,5.27v25.35A5.27,5.27,0,0,1,251.23,148.08ZM149,114.2a3.28,3.28,0,0,0-3.27,3.27v25.35a3.27,3.27,0,0,0,3.27,3.26H251.23a3.26,3.26,0,0,0,3.26-3.26V117.47a3.27,3.27,0,0,0-3.26-3.27Z" fill="#093f68"></path><circle cx="237.5" cy="130.14" r="4.74" fill="#093f68"></circle><path d="M200.09,131.14H159a1,1,0,0,1,0-2h41.1a1,1,0,1,1,0,2Z" fill="#093f68"></path><rect x="144.68" y="152.92" width="110.81" height="33.88" rx="4.26" fill="#007FFF"></rect><path d="M251.23,187.8H149a5.28,5.28,0,0,1-5.27-5.27V157.18a5.27,5.27,0,0,1,5.27-5.26H251.23a5.27,5.27,0,0,1,5.26,5.26v25.35A5.27,5.27,0,0,1,251.23,187.8ZM149,153.92a3.27,3.27,0,0,0-3.27,3.26v25.35A3.28,3.28,0,0,0,149,185.8H251.23a3.27,3.27,0,0,0,3.26-3.27V157.18a3.26,3.26,0,0,0-3.26-3.26Z" fill="#093f68"></path><circle cx="237.5" cy="169.86" r="4.74" fill="#093f68"></circle><path d="M200.09,170.86H159a1,1,0,0,1,0-2h41.1a1,1,0,1,1,0,2Z" fill="#093f68"></path><rect x="144.68" y="192.64" width="110.81" height="33.88" rx="4.26" fill="#007FFF"></rect><path d="M251.23,227.51H149a5.27,5.27,0,0,1-5.27-5.26V196.9a5.27,5.27,0,0,1,5.27-5.26H251.23a5.27,5.27,0,0,1,5.26,5.26v25.35A5.27,5.27,0,0,1,251.23,227.51ZM149,193.64a3.27,3.27,0,0,0-3.27,3.26v25.35a3.27,3.27,0,0,0,3.27,3.26H251.23a3.26,3.26,0,0,0,3.26-3.26V196.9a3.26,3.26,0,0,0-3.26-3.26Z" fill="#093f68"></path><circle cx="237.5" cy="209.57" r="4.74" fill="#093f68"></circle><path d="M200.09,210.57H159a1,1,0,0,1,0-2h41.1a1,1,0,0,1,0,2Z" fill="#093f68"></path><g id="ahcQ9Z"><path d="M191.26,184.1a3.13,3.13,0,0,0-2.42-2.92c-1.17-.25-2.35-.44-3.53-.62a.78.78,0,0,1-.7-.58c-.35-.94-.75-1.87-1.16-2.79a.62.62,0,0,1,.06-.71c.72-1,1.44-1.95,2.1-3a3.11,3.11,0,0,0-.27-3.79c-1.08-1.18-2.24-2.3-3.37-3.44a3.32,3.32,0,0,0-4.52-.41c-.89.62-1.77,1.24-2.64,1.88a.6.6,0,0,1-.71.07c-1-.44-2-.85-3-1.24a.6.6,0,0,1-.45-.55q-.26-1.62-.54-3.24A3.25,3.25,0,0,0,167,160c-1.66,0-3.33,0-5,0a3.15,3.15,0,0,0-3,2.47c-.27,1.21-.45,2.44-.66,3.66a.63.63,0,0,1-.45.55c-1,.38-1.94.8-2.9,1.23a.59.59,0,0,1-.67-.06c-1-.71-1.92-1.43-2.92-2.08a3.11,3.11,0,0,0-3.82.24c-1.27,1.16-2.5,2.37-3.67,3.63a3.21,3.21,0,0,0-.21,4.26c.65.93,1.32,1.85,2,2.79a.62.62,0,0,1,.06.5c-.4,1-.82,2.08-1.26,3.11a.66.66,0,0,1-.4.33c-1.07.2-2.15.37-3.23.54a3.26,3.26,0,0,0-2.9,3c-.06,1.74-.05,3.48,0,5.21a3.11,3.11,0,0,0,2.4,2.9c1.24.28,2.49.47,3.74.68a.6.6,0,0,1,.52.43c.39,1,.81,2,1.25,2.93a.54.54,0,0,1-.06.63c-.66.9-1.31,1.79-1.94,2.71a3.27,3.27,0,0,0,.38,4.38q1.56,1.6,3.16,3.16a3.27,3.27,0,0,0,4.48.34c.91-.64,1.82-1.27,2.71-1.93a.51.51,0,0,1,.59-.05c.93.4,1.85.8,2.79,1.15a.7.7,0,0,1,.52.65c.16,1.07.34,2.13.53,3.19a3.22,3.22,0,0,0,3,2.8c1.75.06,3.51.06,5.25,0a3.13,3.13,0,0,0,2.91-2.44c.26-1.18.44-2.38.64-3.58a.7.7,0,0,1,.49-.62c1-.37,1.95-.78,2.91-1.2a.54.54,0,0,1,.63.07c.89.65,1.8,1.28,2.7,1.93a3.47,3.47,0,0,0,2.18.66,2.76,2.76,0,0,0,1.94-.79c1.15-1.08,2.26-2.2,3.37-3.31a3.33,3.33,0,0,0,.41-4.6c-.62-.88-1.24-1.76-1.88-2.63a.56.56,0,0,1-.06-.63c.43-1,.84-2,1.22-2.95a.63.63,0,0,1,.56-.45c1.08-.16,2.16-.34,3.24-.53a3.25,3.25,0,0,0,2.83-3.09C191.31,187.52,191.3,185.81,191.26,184.1Zm-26.72,14.12a11.53,11.53,0,1,1,11.55-11.51A11.52,11.52,0,0,1,164.54,198.22Z" fill="#fff" stroke="#093f68" stroke-linecap="round" stroke-linejoin="round" stroke-width="2"></path></g><path d="M219.65,85.77H142.21a3.15,3.15,0,0,0-3.16,3.15v17.13a3.16,3.16,0,0,0,3.16,3.16H157l10.16,12v-12h52.53a3.17,3.17,0,0,0,3.16-3.16V88.92A3.16,3.16,0,0,0,219.65,85.77Z" fill="#f56132"></path><path d="M167.12,122.22a1,1,0,0,1-.76-.36l-9.86-11.65H142.21a4.16,4.16,0,0,1-4.16-4.16V88.92a4.15,4.15,0,0,1,4.16-4.15h77.44a4.16,4.16,0,0,1,4.16,4.15v17.13a4.17,4.17,0,0,1-4.16,4.16H168.12v11a1,1,0,0,1-.65.94A1.07,1.07,0,0,1,167.12,122.22ZM142.21,86.77a2.15,2.15,0,0,0-2.16,2.15v17.13a2.16,2.16,0,0,0,2.16,2.16H157a1,1,0,0,1,.76.35l8.4,9.93v-9.28a1,1,0,0,1,1-1h52.53a2.16,2.16,0,0,0,2.16-2.16V88.92a2.16,2.16,0,0,0-2.16-2.15Z" fill="#093f68"></path><path d="M152.9,100.71,153,95h0l-2.1,5.73h-1.37L147.39,95h0l0,5.73h-1.84V92.62h2.78l1.84,5.19h0L152,92.62h2.83v8.09Z" fill="#fff"></path><path d="M156.3,95.8a3.2,3.2,0,0,1,1.17-.72,4,4,0,0,1,1.36-.24,3.9,3.9,0,0,1,1.22.17,1.86,1.86,0,0,1,.81.55,2.49,2.49,0,0,1,.45.94,5.8,5.8,0,0,1,.14,1.34v2.87h-1.71v-.6h0a1.42,1.42,0,0,1-.65.55,2.57,2.57,0,0,1-1,.19,3,3,0,0,1-.71-.09,2.12,2.12,0,0,1-.67-.3,1.63,1.63,0,0,1-.49-.55,1.68,1.68,0,0,1-.2-.84,1.41,1.41,0,0,1,.34-1,2.18,2.18,0,0,1,.87-.58,4.64,4.64,0,0,1,1.18-.28c.44,0,.86-.06,1.27-.06v-.1a.69.69,0,0,0-.3-.62,1.3,1.3,0,0,0-.73-.2,1.88,1.88,0,0,0-.77.17,2.71,2.71,0,0,0-.64.41Zm3.44,2.43h-.24q-.31,0-.63,0a2.92,2.92,0,0,0-.56.11,1,1,0,0,0-.4.23.54.54,0,0,0-.16.41.45.45,0,0,0,.07.27.58.58,0,0,0,.19.19,1,1,0,0,0,.26.09l.29,0a1.14,1.14,0,0,0,.87-.31,1.16,1.16,0,0,0,.31-.85Z" fill="#fff"></path><path d="M164.88,93.2a1.11,1.11,0,0,1-.08.41,1.24,1.24,0,0,1-.23.32,1,1,0,0,1-.35.22,1.15,1.15,0,0,1-.41.08,1.06,1.06,0,0,1-.77-.3,1,1,0,0,1-.31-.73,1,1,0,0,1,.08-.39,1,1,0,0,1,.23-.33,1.11,1.11,0,0,1,.34-.22,1,1,0,0,1,.43-.09,1.15,1.15,0,0,1,.41.08,1.23,1.23,0,0,1,.35.22,1.14,1.14,0,0,1,.23.33A1.06,1.06,0,0,1,164.88,93.2Zm-2,7.51V95h1.87v5.69Z" fill="#fff"></path><path d="M170,100.71V97.6a2.15,2.15,0,0,0,0-.45,1.37,1.37,0,0,0-.13-.39.65.65,0,0,0-.26-.26.77.77,0,0,0-.42-.1.92.92,0,0,0-.44.1.8.8,0,0,0-.31.27,1,1,0,0,0-.19.39,1.84,1.84,0,0,0-.06.47v3.08h-1.89V95h1.82v.79h0a2.11,2.11,0,0,1,.27-.36,1.72,1.72,0,0,1,.39-.31,2.55,2.55,0,0,1,.48-.2,2.1,2.1,0,0,1,.56-.08,2.22,2.22,0,0,1,1,.2,1.88,1.88,0,0,1,.64.54,2,2,0,0,1,.36.74,3.61,3.61,0,0,1,.11.85v3.52Z" fill="#fff"></path><path d="M175.31,96.41v2.18a1,1,0,0,0,.15.61.69.69,0,0,0,.56.2l.29,0a.91.91,0,0,0,.26-.06l0,1.37-.49.12a4,4,0,0,1-.6,0,3,3,0,0,1-1-.14,1.55,1.55,0,0,1-.62-.42,1.58,1.58,0,0,1-.34-.64,3,3,0,0,1-.1-.83V96.41h-.92V95h.91v-1.5h1.84V95h1.34v1.39Z" fill="#fff"></path><path d="M183.17,97.93v.23a1.55,1.55,0,0,1,0,.22H179a.91.91,0,0,0,.14.43,1.12,1.12,0,0,0,.31.34,1.2,1.2,0,0,0,.42.22,1.36,1.36,0,0,0,.49.08,1.6,1.6,0,0,0,.75-.16,1.4,1.4,0,0,0,.5-.43l1.31.82a2.65,2.65,0,0,1-1.06.9,3.51,3.51,0,0,1-1.53.32,3.74,3.74,0,0,1-1.21-.2,3,3,0,0,1-1-.59,2.68,2.68,0,0,1-.67-.94,3,3,0,0,1-.25-1.28,3.15,3.15,0,0,1,.24-1.26,3,3,0,0,1,.65-1,3.13,3.13,0,0,1,1-.61,3.47,3.47,0,0,1,1.22-.21,3.06,3.06,0,0,1,1.15.21,2.44,2.44,0,0,1,.9.61,2.72,2.72,0,0,1,.59,1A3.77,3.77,0,0,1,183.17,97.93Zm-1.72-.72a1.15,1.15,0,0,0-.28-.76,1,1,0,0,0-.84-.32,1.65,1.65,0,0,0-.51.08,1.47,1.47,0,0,0-.4.24,1.17,1.17,0,0,0-.27.35.87.87,0,0,0-.11.41Z" fill="#fff"></path><path d="M188.08,100.71V97.6a2.15,2.15,0,0,0,0-.45,1.37,1.37,0,0,0-.13-.39.65.65,0,0,0-.26-.26.77.77,0,0,0-.42-.1.92.92,0,0,0-.44.1.8.8,0,0,0-.31.27,1,1,0,0,0-.19.39,1.84,1.84,0,0,0-.06.47v3.08h-1.89V95h1.82v.79h0a2.11,2.11,0,0,1,.27-.36,1.72,1.72,0,0,1,.39-.31,2.55,2.55,0,0,1,.48-.2,2.1,2.1,0,0,1,.56-.08,2.22,2.22,0,0,1,1,.2,1.88,1.88,0,0,1,.64.54,2,2,0,0,1,.36.74,3.61,3.61,0,0,1,.11.85v3.52Z" fill="#fff"></path><path d="M191.3,95.8a3.32,3.32,0,0,1,1.18-.72,4,4,0,0,1,1.36-.24,3.9,3.9,0,0,1,1.22.17,1.86,1.86,0,0,1,.81.55,2.49,2.49,0,0,1,.45.94,5.8,5.8,0,0,1,.14,1.34v2.87h-1.72v-.6h0a1.4,1.4,0,0,1-.66.55,2.48,2.48,0,0,1-1,.19,2.94,2.94,0,0,1-.71-.09,2,2,0,0,1-.67-.3,1.66,1.66,0,0,1-.5-.55,1.68,1.68,0,0,1-.19-.84,1.41,1.41,0,0,1,.34-1,2.18,2.18,0,0,1,.87-.58,4.54,4.54,0,0,1,1.18-.28c.43,0,.86-.06,1.27-.06v-.1a.69.69,0,0,0-.3-.62,1.3,1.3,0,0,0-.73-.2,1.84,1.84,0,0,0-.77.17,2.71,2.71,0,0,0-.64.41Zm3.44,2.43h-.24l-.62,0a2.92,2.92,0,0,0-.56.11,1,1,0,0,0-.4.23.54.54,0,0,0-.16.41.45.45,0,0,0,.07.27.58.58,0,0,0,.19.19.88.88,0,0,0,.26.09l.29,0a1.14,1.14,0,0,0,.87-.31,1.19,1.19,0,0,0,.3-.85Z" fill="#fff"></path><path d="M201.59,100.71V97.6a2.15,2.15,0,0,0,0-.45,1.12,1.12,0,0,0-.13-.39.65.65,0,0,0-.26-.26.76.76,0,0,0-.41-.1.87.87,0,0,0-.44.1.83.83,0,0,0-.32.27,1.42,1.42,0,0,0-.19.39,1.84,1.84,0,0,0-.06.47v3.08h-1.89V95h1.82v.79h0a2.11,2.11,0,0,1,.27-.36,1.72,1.72,0,0,1,.39-.31,2.39,2.39,0,0,1,.49-.2,2,2,0,0,1,.56-.08,2.21,2.21,0,0,1,1,.2,1.92,1.92,0,0,1,.65.54,2,2,0,0,1,.35.74,3.61,3.61,0,0,1,.11.85v3.52Z" fill="#fff"></path><path d="M208.83,96.86a1.1,1.1,0,0,0-.43-.33,1.27,1.27,0,0,0-.56-.13,1.19,1.19,0,0,0-.54.12,1.3,1.3,0,0,0-.41.32,1.37,1.37,0,0,0-.27.47,1.47,1.47,0,0,0-.1.56,1.77,1.77,0,0,0,.09.56,1.33,1.33,0,0,0,.27.46,1.3,1.3,0,0,0,1,.43,1.55,1.55,0,0,0,.56-.11,1.09,1.09,0,0,0,.46-.32l1,1.27a2.52,2.52,0,0,1-.92.54,3.58,3.58,0,0,1-1.19.2,3.7,3.7,0,0,1-1.26-.21,2.92,2.92,0,0,1-1-.6,2.66,2.66,0,0,1-.68-1,3.3,3.3,0,0,1,0-2.52,2.75,2.75,0,0,1,.68-1,2.92,2.92,0,0,1,1-.6,3.69,3.69,0,0,1,1.25-.21,4.07,4.07,0,0,1,.61,0,4,4,0,0,1,.59.16,2.38,2.38,0,0,1,.51.24,2.2,2.2,0,0,1,.41.31Z" fill="#fff"></path><path d="M216.3,97.93v.23a1.5,1.5,0,0,1,0,.22h-4.12a.91.91,0,0,0,.14.43,1.12,1.12,0,0,0,.31.34,1.3,1.3,0,0,0,.42.22,1.36,1.36,0,0,0,.49.08,1.57,1.57,0,0,0,.75-.16,1.32,1.32,0,0,0,.5-.43l1.31.82a2.65,2.65,0,0,1-1.06.9,3.51,3.51,0,0,1-1.53.32,3.74,3.74,0,0,1-1.21-.2,3,3,0,0,1-1-.59,2.68,2.68,0,0,1-.67-.94,3,3,0,0,1-.25-1.28,3.15,3.15,0,0,1,.24-1.26,3,3,0,0,1,.65-1,3.06,3.06,0,0,1,1-.61,3.38,3.38,0,0,1,1.21-.21,3.06,3.06,0,0,1,1.15.21,2.56,2.56,0,0,1,.91.61,2.85,2.85,0,0,1,.58,1A3.55,3.55,0,0,1,216.3,97.93Zm-1.73-.72a1.1,1.1,0,0,0-.28-.76,1,1,0,0,0-.84-.32,1.59,1.59,0,0,0-.5.08,1.22,1.22,0,0,0-.4.24,1.06,1.06,0,0,0-.28.35.87.87,0,0,0-.11.41Z" fill="#fff"></path><path d="M265.82,130v34.14c0,3.78-2.46,6.86-5.48,6.86H219.63c-3,0-5.46-3.08-5.46-6.86V130c0-3.78,2.44-6.86,5.46-6.86h40.71C263.36,123.15,265.82,126.23,265.82,130Z" fill="#fff"></path><path d="M260.34,172H219.63c-3.56,0-6.46-3.52-6.46-7.86V130c0-4.34,2.9-7.86,6.46-7.86h40.71c3.57,0,6.48,3.52,6.48,7.86v34.14C266.82,168.49,263.91,172,260.34,172Zm-40.71-47.86c-2.46,0-4.46,2.63-4.46,5.86v34.14c0,3.23,2,5.86,4.46,5.86h40.71c2.47,0,4.48-2.63,4.48-5.86V130c0-3.23-2-5.86-4.48-5.86Z" fill="#093f68"></path><polygon points="233.01 143.96 233.04 143.93 232.88 139.93 227.45 136.7 223.43 140.72 226.62 146.18 230.62 146.34 230.62 146.34 240.12 156.08 242.78 153.42 233.01 143.96" fill="#70cc40"></polygon><path d="M240.12,157.08h0a1,1,0,0,1-.71-.3l-9.22-9.45-3.6-.15a1,1,0,0,1-.82-.5l-3.19-5.45a1,1,0,0,1,.15-1.21l4-4a1,1,0,0,1,1.22-.15l5.42,3.23a1,1,0,0,1,.49.81l.15,3.67,9.44,9.15a1,1,0,0,1,.31.71,1,1,0,0,1-.29.71l-2.66,2.66A1,1,0,0,1,240.12,157.08ZM227.21,145.2l3.45.14a1,1,0,0,1,.68.31l8.79,9,1.22-1.22-9-8.76A1,1,0,0,1,232,144a1.25,1.25,0,0,1,0-.21l-.13-3.24L227.61,138l-2.93,2.92Z" fill="#093f68"></path><rect x="242.08" y="152.3" width="7.29" height="13.49" rx="1.88" transform="translate(-40.49 220.34) rotate(-45)" fill="#70cc40"></rect><path d="M247.92,166.62a2.86,2.86,0,0,1-2-.85L239,158.89a2.89,2.89,0,0,1,0-4.07l2.49-2.5a2.9,2.9,0,0,1,4.08,0l6.88,6.89a2.89,2.89,0,0,1,0,4.07L250,165.77A2.86,2.86,0,0,1,247.92,166.62Zm-4.39-13.14a.89.89,0,0,0-.62.26l-2.49,2.49a.88.88,0,0,0,0,1.25l6.88,6.88a.88.88,0,0,0,1.24,0l2.5-2.49a.89.89,0,0,0,0-1.25l-6.88-6.88A.91.91,0,0,0,243.53,153.48Z" fill="#093f68"></path><path d="M254.27,148.3a7.75,7.75,0,0,0,1.56-8.77l-4.09,4.09-3.31-.29-.79-3.81,4-4a7.78,7.78,0,0,0-10.47,8.74L227.61,158a4.35,4.35,0,0,0,6.15,6.14l13.52-13.73A7.77,7.77,0,0,0,254.27,148.3ZM229.77,162a1.92,1.92,0,1,1,2.71,0A1.93,1.93,0,0,1,229.77,162Z" fill="#ffbc0e"></path><path d="M230.68,166.44a5.34,5.34,0,0,1-3.77-9.12L240.07,144a8.78,8.78,0,0,1,11.9-9.33,1,1,0,0,1,.61.72,1,1,0,0,1-.27.92l-3.58,3.58.53,2.55,2.1.18,3.77-3.76a1,1,0,0,1,.88-.28,1,1,0,0,1,.73.57A8.8,8.8,0,0,1,255,149h0a8.75,8.75,0,0,1-7.35,2.5l-13.16,13.36A5.34,5.34,0,0,1,230.68,166.44ZM248.78,136a6.77,6.77,0,0,0-6.66,8.08,1,1,0,0,1-.27.89l-13.52,13.73a3.34,3.34,0,1,0,4.72,4.73l13.52-13.72a1,1,0,0,1,.9-.28,6.81,6.81,0,0,0,6.1-1.86h0a6.83,6.83,0,0,0,1.83-6.22l-3,3a1,1,0,0,1-.8.29l-3.3-.29a1,1,0,0,1-.89-.79l-.8-3.82a1,1,0,0,1,.28-.91l2.73-2.73C249.37,136.05,249.07,136,248.78,136Zm-17.65,27.54a2.91,2.91,0,0,1-2.06-5,3,3,0,0,1,4.12,0,2.92,2.92,0,0,1,0,4.12A3,3,0,0,1,231.13,163.57Zm0-3.83a.91.91,0,0,0-.65.27.91.91,0,0,0,1.29,1.29.91.91,0,0,0,0-1.29A.91.91,0,0,0,231.13,159.74Z" fill="#093f68"></path><path d="M265.82,131H214.17a1,1,0,1,1,0-2h51.65a1,1,0,0,1,0,2Z" fill="#093f68"></path></g></svg>